<?xml version="1.0" standalone="no"?>
<!DOCTYPE svg PUBLIC "-//W3C//DTD SVG 20010904//EN"
 "http://www.w3.org/TR/2001/REC-SVG-20010904/DTD/svg10.dtd">
<svg version="1.0" xmlns="http://www.w3.org/2000/svg"
 width="700.000000pt" height="700.000000pt" viewBox="0 0 700.000000 700.000000"
 preserveAspectRatio="xMidYMid meet">
 <circle cx="50%" cy="50%" r="50%" fill="#fdf2e9" />
<g transform="translate(100.000000,600.000000) scale(0.100000,-0.100000)"
fill="#336bff" stroke="none">
<path d="M2565 5110 c-317 -32 -617 -112 -861 -231 -102 -49 -242 -138 -301
-189 l-32 -28 -63 33 c-357 188 -641 50 -767 -372 -63 -215 -130 -634 -131
-824 0 -36 28 -68 67 -75 25 -5 37 -1 56 18 21 21 25 37 31 119 20 270 71 562
132 751 77 238 203 342 376 310 65 -12 164 -55 239 -103 25 -16 55 -29 66 -29
12 0 54 28 95 62 99 83 172 130 305 194 488 238 1170 290 1685 128 108 -34
288 -119 380 -181 95 -63 227 -189 298 -284 271 -364 356 -928 240 -1589 -18
-101 -76 -343 -86 -362 -5 -8 -126 23 -216 57 -83 32 -259 118 -363 178 -184
106 -496 330 -700 501 -104 88 -126 97 -163 69 -50 -37 -43 -66 71 -308 57
-121 100 -221 96 -223 -14 -6 -449 105 -656 167 -330 99 -681 227 -981 357
-133 58 -169 65 -196 35 -9 -10 -32 -78 -51 -152 -40 -158 -84 -291 -149 -449
-62 -149 -176 -372 -189 -367 -18 6 -107 224 -143 350 -35 121 -68 292 -79
407 -12 128 -17 152 -36 171 -24 24 -70 25 -99 1 -20 -16 -23 -27 -21 -83 5
-259 95 -612 221 -876 58 -121 60 -129 60 -206 l0 -79 -24 15 c-45 30 -136 50
-206 45 -214 -16 -346 -199 -326 -453 24 -293 239 -529 530 -579 l70 -12 28
-85 c155 -462 536 -799 1030 -912 88 -20 126 -21 706 -24 669 -4 736 -1 917
52 433 126 780 459 923 884 l28 85 80 13 c280 48 497 289 520 582 15 193 -63
354 -204 418 -98 46 -247 39 -328 -14 l-24 -15 0 175 c0 146 3 185 20 239 55
177 110 466 130 673 13 142 13 419 -1 543 -51 469 -228 840 -519 1084 -236
198 -527 320 -892 374 -125 18 -469 26 -593 14z m-1025 -2080 c476 -193 1047
-367 1513 -461 106 -21 120 -22 144 -9 54 30 51 56 -22 211 -36 78 -65 143
-63 144 2 1 77 -51 168 -116 195 -140 420 -277 581 -353 124 -58 298 -121 367
-132 l42 -7 0 -91 0 -91 -110 -83 c-69 -52 -112 -78 -114 -70 -3 7 -10 31 -16
53 -61 201 -260 387 -471 439 -82 20 -233 21 -317 1 -69 -16 -157 -57 -225
-104 -113 -77 -229 -245 -258 -374 -13 -53 -16 -57 -37 -52 -92 23 -232 23
-324 0 -21 -5 -24 -1 -35 47 -44 186 -204 373 -388 451 -115 49 -289 62 -414
31 -211 -52 -410 -238 -471 -439 -6 -22 -13 -46 -16 -53 -2 -8 -40 15 -106 64
-57 42 -107 80 -111 84 -5 4 17 42 48 85 108 151 274 529 345 785 41 151 38
143 53 136 6 -3 113 -46 237 -96z m331 -720 c214 -66 359 -262 359 -484 0
-154 -43 -259 -150 -366 -102 -102 -217 -150 -360 -150 -142 0 -259 49 -360
150 -102 102 -150 217 -150 360 0 225 136 414 350 487 87 30 221 31 311 3z
m1681 0 c213 -66 358 -264 358 -490 0 -137 -45 -249 -142 -355 -45 -48 -58
-70 -58 -94 0 -41 31 -71 72 -71 27 0 44 12 100 70 85 89 142 200 166 324 l17
89 97 73 c53 41 100 74 103 74 3 0 5 -143 5 -317 0 -434 -19 -552 -125 -769
-184 -378 -539 -632 -957 -684 -64 -8 -278 -10 -688 -7 -524 3 -604 6 -670 21
-474 112 -821 444 -942 901 l-31 120 -5 368 c-2 202 -1 367 3 367 3 0 50 -33
103 -74 l97 -73 17 -89 c47 -249 238 -451 484 -514 229 -59 460 6 629 175 107
106 161 209 189 355 l12 64 45 14 c57 17 201 17 258 0 l45 -14 12 -64 c28
-146 82 -249 189 -355 92 -93 182 -145 301 -175 85 -22 225 -27 286 -10 64 18
87 75 49 121 -18 23 -24 24 -126 21 -179 -6 -293 36 -405 148 -107 107 -150
212 -150 366 0 222 143 416 358 485 80 25 220 25 304 -1z m-2974 -405 c73 -31
121 -102 122 -181 l0 -41 -52 18 c-61 21 -107 23 -161 8 -72 -20 -99 -82 -55
-128 19 -21 27 -23 84 -17 52 5 71 3 101 -13 76 -39 80 -48 86 -218 3 -84 2
-153 -3 -153 -27 0 -137 43 -179 69 -66 43 -143 126 -176 191 -77 152 -67 349
22 433 51 47 141 61 211 32z m4112 5 c43 -12 93 -61 114 -111 39 -93 26 -250
-29 -359 -33 -65 -110 -148 -176 -191 -42 -26 -152 -69 -179 -69 -5 0 -6 69
-3 153 6 170 10 179 86 218 30 16 49 18 101 13 57 -6 65 -4 84 17 44 46 17
108 -55 128 -54 15 -100 13 -160 -8 l-53 -18 0 39 c0 137 130 227 270 188z"/>
<path d="M1751 2075 c-63 -58 -85 -121 -85 -245 0 -89 3 -113 23 -158 43 -95
118 -139 185 -107 154 73 158 452 6 530 -48 25 -86 19 -129 -20z"/>
<path d="M3229 2087 c-74 -49 -118 -193 -98 -320 33 -208 179 -281 277 -137
35 52 47 107 46 210 0 114 -24 180 -85 235 -47 42 -90 46 -140 12z"/>
<path d="M2272 930 c-36 -34 -30 -81 18 -123 90 -82 220 -120 336 -98 127 23
244 104 244 168 0 39 -32 73 -70 73 -14 0 -48 -17 -78 -39 -103 -78 -221 -78
-324 0 -59 44 -94 49 -126 19z"/>
</g>
</svg>
